<svg xmlns="http://www.w3.org/2000/svg" version="1.1" xmlns:xlink="http://www.w3.org/1999/xlink" xmlns:svgjs="http://svgjs.dev/svgjs" width="1440" height="1793" preserveAspectRatio="none" viewBox="0 0 1440 1793"><g mask="url(&quot;#SvgjsMask1009&quot;)" fill="none"><rect width="1440" height="1793" x="0" y="0" fill="rgba(80, 47, 24, 1)"></rect><path d="M405.429,1529.625C510.082,1529.94,628.058,1519.781,680.64,1429.297C733.38,1338.54,687.649,1228.603,632.123,1139.523C580.569,1056.815,502.889,987.816,405.429,987.778C307.914,987.74,229.766,1056.438,178.431,1139.347C123.541,1227.997,80.647,1337.52,133.07,1427.651C185.309,1517.465,301.528,1529.313,405.429,1529.625" fill="rgba(120, 75, 51, 1)" class="triangle-float3"></path><path d="M323.843,1151.055C399.994,1154.732,479.015,1135.075,522.139,1072.203C571.079,1000.851,589.729,904.03,543.398,830.957C499.224,761.286,406.323,757.854,323.843,759.45C245.17,760.972,157.404,770.765,118.527,839.178C79.938,907.083,113.211,989.293,156.158,1054.53C194.167,1112.266,254.799,1147.721,323.843,1151.055" fill="rgba(120, 75, 51, 1)" class="triangle-float3"></path><path d="M209.202,1533.296C262.558,1532.327,313.59,1510.685,342.452,1465.798C373.917,1416.862,387.596,1353.014,356.897,1303.594C327.36,1256.043,265.113,1248.547,209.202,1251.286C158.948,1253.748,111.923,1274.677,84.608,1316.931C54.576,1363.386,39.693,1422.857,67.298,1470.794C94.943,1518.8,153.814,1534.302,209.202,1533.296" fill="rgba(120, 75, 51, 1)" class="triangle-float1"></path><path d="M1264.355,683.303C1356.81,683.502,1450.645,641.94,1491.273,558.89C1528.557,482.675,1487.026,396.935,1438.491,327.342C1398.066,269.377,1334.905,237.613,1264.355,233.514C1184.203,228.857,1097.039,238.893,1051.25,304.843C999.626,379.197,994.714,479.041,1039.126,557.915C1084.313,638.164,1172.259,683.104,1264.355,683.303" fill="rgba(120, 75, 51, 1)" class="triangle-float1"></path><path d="M1144.4551158978222-162.56985093315186L1057.3905665690586 105.38727920756699 1325.3476967097774 192.45182853633074 1412.412246038541-75.50530160438814z" fill="rgba(120, 75, 51, 1)" class="triangle-float1"></path><path d="M1273.0116804897295 1567.1323347551788L1013.7198044590032 1710.8601686071797 1157.447638311004 1970.1520446379063 1416.7395143417305 1826.4242107859052z" fill="rgba(120, 75, 51, 1)" class="triangle-float2"></path></g><defs><mask id="SvgjsMask1009"><rect width="1440" height="1793" fill="#ffffff"></rect></mask><style>
                @keyframes float1 {
                    0%{transform: translate(0, 0)}
                    50%{transform: translate(-10px, 0)}
                    100%{transform: translate(0, 0)}
                }

                .triangle-float1 {
                    animation: float1 5s infinite;
                }

                @keyframes float2 {
                    0%{transform: translate(0, 0)}
                    50%{transform: translate(-5px, -5px)}
                    100%{transform: translate(0, 0)}
                }

                .triangle-float2 {
                    animation: float2 4s infinite;
                }

                @keyframes float3 {
                    0%{transform: translate(0, 0)}
                    50%{transform: translate(0, -10px)}
                    100%{transform: translate(0, 0)}
                }

                .triangle-float3 {
                    animation: float3 6s infinite;
                }
            </style></defs></svg>